<svg width="30" height="30" viewBox="0 0 30 30" fill="none" xmlns="http://www.w3.org/2000/svg">
<path fill-rule="evenodd" clip-rule="evenodd" d="M2.54673 14.1167C10.2986 10.7393 15.4677 8.51274 18.0541 7.43697C25.4387 4.36545 26.9732 3.83189 27.9733 3.81427C28.1933 3.8104 28.6852 3.86492 29.0037 4.12343C29.2728 4.34172 29.3468 4.63659 29.3822 4.84355C29.4176 5.05051 29.4617 5.52197 29.4267 5.89036C29.0265 10.095 27.2949 20.2987 26.414 25.008C26.0413 27.0007 25.3073 27.6688 24.5968 27.7342C23.0526 27.8763 21.88 26.7137 20.3843 25.7333C18.044 24.1992 16.7218 23.2442 14.4501 21.7471C11.8247 20.017 13.5266 19.0662 15.0228 17.5121C15.4144 17.1055 22.2181 10.9169 22.3498 10.3555C22.3663 10.2853 22.3816 10.0236 22.2261 9.88539C22.0706 9.74719 21.8411 9.79445 21.6756 9.83203C21.4408 9.88531 17.7021 12.3565 10.4593 17.2456C9.39802 17.9743 8.43678 18.3294 7.57555 18.3108C6.62611 18.2902 4.79977 17.7739 3.44207 17.3326C1.7768 16.7913 0.45327 16.5051 0.568519 15.5858C0.628548 15.1069 1.28795 14.6172 2.54673 14.1167Z" fill="#111111"/>
</svg>
