<svg width="215" height="301" viewBox="0 0 215 301" fill="none" xmlns="http://www.w3.org/2000/svg">
<rect width="215" height="301" rx="20" fill="url(#paint0_linear_800_1887)"/>
<rect x="10.5" y="10.5" width="194" height="280" rx="9.5" stroke="#BABABA"/>
<path fill-rule="evenodd" clip-rule="evenodd" d="M117.187 213.161L114.496 217.362C109.219 225.599 99.077 229.358 89.5685 226.605C97.7054 232.243 101.19 242.482 98.1323 251.774L96.5725 256.513L99.2642 252.312C104.541 244.075 114.683 240.316 124.191 243.069C116.054 237.431 112.569 227.192 115.627 217.9L117.187 213.161ZM113.834 216.941L118.198 210.129L118.901 210.463L116.372 218.148C113.42 227.119 116.788 237.006 124.65 242.443L126.594 243.788L126.265 244.478L123.995 243.819C114.816 241.153 105.021 244.781 99.9262 252.733L95.5619 259.545L94.8586 259.211L97.3877 251.526C100.34 242.555 96.9717 232.668 89.1101 227.231L87.1662 225.886L87.4946 225.196L89.7644 225.855C98.9441 228.52 108.739 224.893 113.834 216.941Z" fill="#BABABA" stroke="#BABABA" stroke-width="0.2"/>
<path fill-rule="evenodd" clip-rule="evenodd" d="M95.0228 67.4774C101.709 68.6069 107.062 73.7336 108.478 80.3655C109.607 73.6789 114.734 68.3268 121.366 66.9108C114.679 65.7812 109.327 60.6545 107.911 54.0226C106.781 60.7093 101.655 66.0614 95.0228 67.4774ZM92.4591 67.2468C100.854 66.7645 107.449 59.8788 107.57 51.4713L108.141 51.459C108.624 59.8536 115.509 66.4493 123.917 66.5701L123.929 67.1413C115.535 67.6236 108.939 74.5093 108.818 82.9168L108.247 82.9291C107.765 74.5346 100.879 67.9388 92.4714 67.818L92.4591 67.2468Z" fill="#BABABA" stroke="#BABABA" stroke-width="0.2"/>
<defs>
<linearGradient id="paint0_linear_800_1887" x1="0" y1="0" x2="215" y2="301" gradientUnits="userSpaceOnUse">
<stop stop-color="#1E261D"/>
<stop offset="0.62" stop-color="#110F0E"/>
</linearGradient>
</defs>
</svg>
