<svg width="215" height="301" viewBox="0 0 215 301" fill="none" xmlns="http://www.w3.org/2000/svg">
<rect width="215" height="301" rx="20" fill="url(#paint0_linear_672_1217)"/>
<rect x="10.5" y="10.5" width="194" height="280" rx="9.5" stroke="black"/>
<path fill-rule="evenodd" clip-rule="evenodd" d="M105.126 24.7459L105.244 27.5097C105.475 32.9279 102.072 37.8654 96.8805 39.6464C102.369 39.6111 107.212 43.146 108.786 48.3358L109.589 50.9831L109.471 48.2193C109.24 42.8011 112.643 37.8636 117.834 36.0826C112.346 36.1179 107.503 32.583 105.929 27.3932L105.126 24.7459ZM104.809 27.5296L104.619 23.0484L105.044 22.976L106.346 27.2683C107.865 32.2791 112.544 35.691 117.843 35.6527L119.153 35.6433L119.225 36.0612L117.985 36.4855C112.971 38.2013 109.683 42.9681 109.906 48.1994L110.096 52.6806L109.671 52.753L108.369 48.4607C106.85 43.4499 102.171 40.038 96.8719 40.0763L95.5615 40.0857L95.4905 39.6677L96.7303 39.2435C101.744 37.5277 105.032 32.7609 104.809 27.5296Z" fill="black" stroke="black" stroke-width="0.2"/>
<path fill-rule="evenodd" clip-rule="evenodd" d="M98.6009 261.062C103.148 263.572 105.718 268.633 105.062 273.785C107.572 269.238 112.633 266.667 117.785 267.323C113.238 264.813 110.667 259.753 111.323 254.601C108.814 259.148 103.753 261.718 98.6009 261.062ZM96.8062 260.246C102.996 262.023 109.507 258.717 111.723 252.67L112.139 252.806C110.362 258.996 113.669 265.507 119.715 267.723L119.579 268.139C113.39 266.362 106.879 269.669 104.663 275.715L104.247 275.579C106.024 269.39 102.717 262.879 96.6705 260.662L96.8062 260.246Z" fill="black" stroke="black" stroke-width="0.2"/>
<defs>
<linearGradient id="paint0_linear_672_1217" x1="6.19643e-06" y1="-14.5" x2="215" y2="306.5" gradientUnits="userSpaceOnUse">
<stop stop-color="#EDEDED"/>
<stop offset="0.999612" stop-color="#C8C0C7"/>
</linearGradient>
</defs>
</svg>
